<svg version="1.1" viewBox="0.0 0.0 880.8425196850394 377.26246719160105" fill="none" stroke="none" stroke-linecap="square" stroke-miterlimit="10" xmlns:xlink="http://www.w3.org/1999/xlink" xmlns="http://www.w3.org/2000/svg"><clipPath id="p.0"><path d="m0 0l880.8425 0l0 377.26248l-880.8425 0l0 -377.26248z" clip-rule="nonzero"/></clipPath><g clip-path="url(#p.0)"><path fill="#000000" fill-opacity="0.0" d="m0 0l880.8425 0l0 377.26248l-880.8425 0z" fill-rule="evenodd"/><path fill="#000000" fill-opacity="0.0" d="m117.049866 238.30183l115.36865 -174.29921l397.48315 0l115.36865 174.29921z" fill-rule="evenodd"/><path stroke="#000000" stroke-width="2.0" stroke-linejoin="round" stroke-linecap="butt" d="m117.049866 238.30183l115.36865 -174.29921l397.48315 0l115.36865 174.29921z" fill-rule="evenodd"/><path fill="#000000" fill-opacity="0.0" d="m232.42258 238.52756l0 -174.11023" fill-rule="evenodd"/><path stroke="#000000" stroke-width="1.0" stroke-linejoin="round" stroke-linecap="butt" stroke-dasharray="4.0,3.0" d="m232.42258 238.52756l0 -174.11023" fill-rule="evenodd"/><path fill="#000000" fill-opacity="0.0" d="m629.68506 238.52756l0 -174.11023" fill-rule="evenodd"/><path stroke="#000000" stroke-width="1.0" stroke-linejoin="round" stroke-linecap="butt" stroke-dasharray="4.0,3.0" d="m629.68506 238.52756l0 -174.11023" fill-rule="evenodd"/><path fill="#000000" fill-opacity="0.0" d="m368.10892 278.30185l125.88977 0l0 40.881866l-125.88977 0z" fill-rule="evenodd"/><path fill="#434343" d="m380.5933 303.78433l6.484375 0l0 1.4375l-8.171875 0l0 -13.265625l1.6875 0l0 11.828125zm8.820587 -3.578125q0 -1.0625 0.3125 -1.984375q0.3125 -0.921875 0.890625 -1.59375q0.578125 -0.671875 1.40625 -1.046875q0.828125 -0.390625 1.859375 -0.390625q1.046875 0 1.875 0.390625q0.84375 0.375 1.421875 1.046875q0.578125 0.671875 0.890625 1.59375q0.3125 0.921875 0.3125 1.984375l0 0.203125q0 1.0625 -0.3125 1.96875q-0.3125 0.90625 -0.890625 1.59375q-0.578125 0.671875 -1.40625 1.0625q-0.828125 0.375 -1.859375 0.375q-1.046875 0 -1.890625 -0.375q-0.828125 -0.390625 -1.40625 -1.0625q-0.578125 -0.6875 -0.890625 -1.59375q-0.3125 -0.90625 -0.3125 -1.96875l0 -0.203125zm1.6875 0.203125q0 0.71875 0.171875 1.390625q0.171875 0.65625 0.515625 1.15625q0.359375 0.5 0.890625 0.796875q0.53125 0.28125 1.234375 0.28125q0.6875 0 1.203125 -0.28125q0.53125 -0.296875 0.875 -0.796875q0.359375 -0.5 0.53125 -1.15625q0.171875 -0.671875 0.171875 -1.390625l0 -0.203125q0 -0.71875 -0.1875 -1.375q-0.171875 -0.671875 -0.53125 -1.171875q-0.34375 -0.5 -0.875 -0.796875q-0.515625 -0.296875 -1.21875 -0.296875q-0.703125 0 -1.21875 0.296875q-0.515625 0.296875 -0.875 0.796875q-0.34375 0.5 -0.515625 1.171875q-0.171875 0.65625 -0.171875 1.375l0 0.203125zm11.492432 -5.046875l0.125 1.453125q0.53125 -0.765625 1.3125 -1.1875q0.78125 -0.4375 1.75 -0.4375q0.78125 0 1.40625 0.21875q0.640625 0.21875 1.078125 0.6875q0.453125 0.453125 0.6875 1.171875q0.25 0.71875 0.25 1.6875l0 6.265625l-1.6875 0l0 -6.21875q0 -0.65625 -0.15625 -1.109375q-0.140625 -0.453125 -0.421875 -0.734375q-0.28125 -0.296875 -0.703125 -0.421875q-0.40625 -0.125 -0.953125 -0.125q-0.84375 0 -1.484375 0.421875q-0.640625 0.421875 -1.03125 1.125l0 7.0625l-1.6875 0l0 -9.859375l1.515625 0zm9.383087 4.84375q0 -1.09375 0.265625 -2.015625q0.265625 -0.9375 0.765625 -1.59375q0.515625 -0.671875 1.25 -1.03125q0.734375 -0.375 1.640625 -0.375q0.921875 0 1.609375 0.328125q0.6875 0.3125 1.171875 0.921875l0.078125 -1.078125l1.53125 0l0 9.65625q0 0.96875 -0.3125 1.71875q-0.296875 0.765625 -0.859375 1.28125q-0.546875 0.53125 -1.3125 0.796875q-0.765625 0.28125 -1.6875 0.28125q-0.390625 0 -0.890625 -0.09375q-0.484375 -0.078125 -0.984375 -0.28125q-0.5 -0.1875 -0.96875 -0.515625q-0.46875 -0.328125 -0.8125 -0.8125l0.875 -1.0q0.3125 0.375 0.640625 0.625q0.328125 0.265625 0.65625 0.421875q0.34375 0.15625 0.671875 0.21875q0.34375 0.0625 0.6875 0.0625q0.59375 0 1.078125 -0.171875q0.484375 -0.171875 0.828125 -0.5q0.34375 -0.328125 0.515625 -0.828125q0.1875 -0.484375 0.1875 -1.125l0 -0.84375q-0.484375 0.5625 -1.15625 0.859375q-0.671875 0.296875 -1.5625 0.296875q-0.890625 0 -1.625 -0.375q-0.734375 -0.390625 -1.234375 -1.0625q-0.5 -0.6875 -0.78125 -1.59375q-0.265625 -0.921875 -0.265625 -1.96875l0 -0.203125zm1.671875 0.203125q0 0.71875 0.15625 1.359375q0.15625 0.640625 0.46875 1.140625q0.328125 0.484375 0.828125 0.78125q0.5 0.28125 1.203125 0.28125q0.4375 0 0.78125 -0.09375q0.359375 -0.109375 0.640625 -0.296875q0.28125 -0.203125 0.5 -0.46875q0.21875 -0.265625 0.375 -0.578125l0 -4.515625q-0.15625 -0.3125 -0.375 -0.5625q-0.21875 -0.265625 -0.515625 -0.453125q-0.28125 -0.1875 -0.625 -0.28125q-0.34375 -0.109375 -0.765625 -0.109375q-0.703125 0 -1.21875 0.296875q-0.5 0.28125 -0.828125 0.78125q-0.3125 0.5 -0.46875 1.15625q-0.15625 0.640625 -0.15625 1.359375l0 0.203125zm29.375519 0q0 1.046875 -0.265625 1.96875q-0.25 0.90625 -0.75 1.59375q-0.484375 0.671875 -1.203125 1.0625q-0.71875 0.375 -1.65625 0.375q-0.953125 0 -1.65625 -0.328125q-0.6875 -0.34375 -1.1875 -0.984375l-0.078125 1.125l-1.546875 0l0 -14.0l1.6875 0l0 5.203125q0.484375 -0.609375 1.15625 -0.921875q0.6875 -0.3125 1.609375 -0.3125q0.9375 0 1.65625 0.375q0.734375 0.359375 1.21875 1.03125q0.5 0.65625 0.75 1.59375q0.265625 0.921875 0.265625 2.015625l0 0.203125zm-1.6875 -0.203125q0 -0.71875 -0.140625 -1.359375q-0.140625 -0.65625 -0.453125 -1.15625q-0.3125 -0.5 -0.8125 -0.78125q-0.5 -0.296875 -1.21875 -0.296875q-0.4375 0 -0.8125 0.125q-0.359375 0.109375 -0.65625 0.3125q-0.28125 0.203125 -0.5 0.484375q-0.21875 0.265625 -0.375 0.59375l0 4.3125q0.15625 0.328125 0.375 0.609375q0.234375 0.28125 0.515625 0.5q0.296875 0.203125 0.65625 0.3125q0.375 0.109375 0.8125 0.109375q0.6875 0 1.1875 -0.28125q0.5 -0.296875 0.8125 -0.78125q0.3125 -0.5 0.453125 -1.140625q0.15625 -0.640625 0.15625 -1.359375l0 -0.203125zm11.008057 5.015625q-0.09375 -0.1875 -0.15625 -0.46875q-0.0625 -0.296875 -0.09375 -0.609375q-0.25 0.265625 -0.5625 0.5q-0.3125 0.21875 -0.703125 0.390625q-0.375 0.171875 -0.8125 0.265625q-0.421875 0.109375 -0.890625 0.109375q-0.796875 0 -1.4375 -0.21875q-0.625 -0.234375 -1.0625 -0.625q-0.4375 -0.390625 -0.6875 -0.921875q-0.234375 -0.53125 -0.234375 -1.15625q0 -0.8125 0.3125 -1.421875q0.328125 -0.609375 0.921875 -1.015625q0.59375 -0.40625 1.421875 -0.59375q0.84375 -0.203125 1.875 -0.203125l1.828125 0l0 -0.78125q0 -0.453125 -0.171875 -0.796875q-0.15625 -0.359375 -0.453125 -0.609375q-0.296875 -0.25 -0.734375 -0.390625q-0.421875 -0.140625 -0.96875 -0.140625q-0.5 0 -0.90625 0.140625q-0.390625 0.125 -0.671875 0.34375q-0.265625 0.203125 -0.421875 0.484375q-0.140625 0.28125 -0.140625 0.59375l-1.6875 0q0 -0.53125 0.265625 -1.046875q0.28125 -0.53125 0.78125 -0.9375q0.5 -0.421875 1.21875 -0.671875q0.734375 -0.25 1.65625 -0.25q0.84375 0 1.5625 0.203125q0.71875 0.203125 1.234375 0.625q0.53125 0.40625 0.828125 1.03125q0.296875 0.609375 0.296875 1.4375l0 4.578125q0 0.5 0.09375 1.046875q0.09375 0.546875 0.25 0.96875l0 0.140625l-1.75 0zm-2.984375 -1.28125q0.5 0 0.921875 -0.125q0.4375 -0.140625 0.78125 -0.34375q0.34375 -0.203125 0.59375 -0.46875q0.265625 -0.28125 0.40625 -0.5625l0 -2.0l-1.5625 0q-1.46875 0 -2.296875 0.4375q-0.8125 0.4375 -0.8125 1.375q0 0.359375 0.125 0.671875q0.125 0.3125 0.359375 0.53125q0.25 0.21875 0.625 0.359375q0.375 0.125 0.859375 0.125zm14.258087 -1.328125q0 -0.3125 -0.125 -0.546875q-0.125 -0.234375 -0.40625 -0.4375q-0.28125 -0.203125 -0.75 -0.375q-0.453125 -0.171875 -1.140625 -0.296875q-0.859375 -0.1875 -1.5625 -0.421875q-0.6875 -0.25 -1.1875 -0.59375q-0.484375 -0.34375 -0.765625 -0.796875q-0.265625 -0.46875 -0.265625 -1.078125q0 -0.59375 0.28125 -1.109375q0.28125 -0.53125 0.78125 -0.921875q0.515625 -0.390625 1.21875 -0.609375q0.703125 -0.234375 1.5625 -0.234375q0.90625 0 1.625 0.234375q0.734375 0.234375 1.25 0.65625q0.515625 0.40625 0.78125 0.96875q0.28125 0.5625 0.28125 1.21875l-1.6875 0q0 -0.328125 -0.171875 -0.625q-0.15625 -0.3125 -0.453125 -0.546875q-0.28125 -0.234375 -0.703125 -0.375q-0.40625 -0.15625 -0.921875 -0.15625q-0.546875 0 -0.953125 0.125q-0.40625 0.109375 -0.671875 0.3125q-0.265625 0.203125 -0.40625 0.46875q-0.140625 0.265625 -0.140625 0.546875q0 0.28125 0.109375 0.515625q0.109375 0.234375 0.375 0.421875q0.28125 0.171875 0.734375 0.328125q0.453125 0.140625 1.140625 0.265625q0.90625 0.203125 1.625 0.453125q0.71875 0.25 1.203125 0.609375q0.5 0.34375 0.75 0.8125q0.265625 0.453125 0.265625 1.0625q0 0.65625 -0.296875 1.203125q-0.28125 0.53125 -0.8125 0.921875q-0.53125 0.375 -1.265625 0.59375q-0.734375 0.203125 -1.609375 0.203125q-1.015625 0 -1.796875 -0.265625q-0.78125 -0.28125 -1.328125 -0.71875q-0.53125 -0.4375 -0.828125 -1.015625q-0.28125 -0.59375 -0.28125 -1.21875l1.6875 0q0.03125 0.515625 0.265625 0.875q0.25 0.359375 0.609375 0.578125q0.359375 0.21875 0.796875 0.3125q0.4375 0.078125 0.875 0.078125q1.0625 0 1.671875 -0.390625q0.625 -0.390625 0.640625 -1.03125zm8.992432 2.796875q-1.03125 0 -1.90625 -0.359375q-0.875 -0.359375 -1.5 -0.984375q-0.609375 -0.640625 -0.953125 -1.515625q-0.34375 -0.875 -0.34375 -1.90625l0 -0.390625q0 -1.1875 0.375 -2.125q0.390625 -0.953125 1.015625 -1.59375q0.640625 -0.65625 1.4375 -1.0q0.8125 -0.34375 1.65625 -0.34375q1.0625 0 1.859375 0.375q0.796875 0.359375 1.328125 1.015625q0.53125 0.640625 0.78125 1.53125q0.265625 0.875 0.265625 1.90625l0 0.75l-7.03125 0q0.015625 0.6875 0.25 1.28125q0.234375 0.578125 0.640625 1.03125q0.40625 0.4375 0.96875 0.703125q0.5625 0.25 1.25 0.25q0.90625 0 1.59375 -0.359375q0.703125 -0.375 1.171875 -0.96875l1.03125 0.796875q-0.25 0.375 -0.625 0.71875q-0.359375 0.328125 -0.84375 0.59375q-0.484375 0.265625 -1.09375 0.421875q-0.609375 0.171875 -1.328125 0.171875zm-0.21875 -8.84375q-0.515625 0 -0.96875 0.1875q-0.453125 0.1875 -0.8125 0.546875q-0.359375 0.359375 -0.625 0.890625q-0.25 0.515625 -0.34375 1.203125l5.296875 0l0 -0.125q-0.015625 -0.5 -0.1875 -0.984375q-0.15625 -0.484375 -0.46875 -0.859375q-0.296875 -0.390625 -0.765625 -0.625q-0.46875 -0.234375 -1.125 -0.234375z" fill-rule="nonzero"/><path fill="#000000" fill-opacity="0.0" d="m361.63458 10.068102l136.31497 0l0 40.88189l-136.31497 0z" fill-rule="evenodd"/><path fill="#434343" d="m379.16583 33.628723q0 -0.609375 -0.28125 -1.015625q-0.28125 -0.421875 -0.71875 -0.7031231q-0.4375 -0.296875 -0.96875 -0.484375q-0.515625 -0.1875 -1.0 -0.34375q-0.703125 -0.234375 -1.421875 -0.546875q-0.71875 -0.328125 -1.328125 -0.78125q-0.59375 -0.46875 -0.96875 -1.09375q-0.375 -0.640625 -0.375 -1.5q0 -0.859375 0.375 -1.53125q0.375 -0.671875 0.984375 -1.140625q0.609375 -0.46875 1.375 -0.703125q0.78125 -0.25 1.578125 -0.25q0.859375 0 1.65625 0.296875q0.8125 0.28125 1.421875 0.8125q0.625 0.515625 1.0 1.25q0.375 0.734375 0.390625 1.640625l-1.734375 0q-0.078125 -0.5625 -0.28125 -1.03125q-0.203125 -0.46875 -0.5625 -0.8125q-0.34375 -0.34375 -0.828125 -0.515625q-0.46875 -0.1875 -1.0625 -0.1875q-0.484375 0 -0.953125 0.140625q-0.453125 0.125 -0.8125 0.40625q-0.359375 0.265625 -0.578125 0.671875q-0.21875 0.390625 -0.21875 0.921875q0.015625 0.578125 0.296875 0.984375q0.28125 0.390625 0.71875 0.671875q0.4375 0.265625 0.9375 0.453125q0.5 0.171875 0.953125 0.3125q0.484375 0.15625 0.984375 0.359375q0.5 0.1875 0.96875 0.4375q0.46875 0.25 0.859375 0.578125q0.40625 0.3125 0.703125 0.71875q0.3125 0.4062481 0.46875 0.8906231q0.171875 0.484375 0.171875 1.078125q0 0.890625 -0.40625 1.5625q-0.390625 0.671875 -1.015625 1.109375q-0.625 0.4375 -1.421875 0.671875q-0.78125 0.21875 -1.578125 0.21875q-0.890625 0 -1.734375 -0.265625q-0.84375 -0.28125 -1.515625 -0.796875q-0.671875 -0.515625 -1.09375 -1.25q-0.40625 -0.75 -0.4375 -1.703125l1.71875 0q0.078125 0.625 0.328125 1.109375q0.265625 0.46875 0.65625 0.8125q0.40625 0.328125 0.921875 0.5q0.53125 0.15625 1.15625 0.15625q0.484375 0 0.96875 -0.125q0.484375 -0.125 0.84375 -0.375q0.375 -0.265625 0.609375 -0.65625q0.25 -0.40625 0.25 -0.953125zm5.929962 -5.031248q0.53125 -0.78125 1.296875 -1.203125q0.78125 -0.4375 1.75 -0.4375q0.78125 0 1.40625 0.21875q0.640625 0.21875 1.078125 0.703125q0.453125 0.46875 0.6875 1.1875q0.25 0.71875 0.25 1.71875l0 6.203123l-1.6875 0l0 -6.218748q0 -1.21875 -0.578125 -1.8125q-0.578125 -0.59375 -1.65625 -0.578125q-0.8125 0 -1.46875 0.40625q-0.65625 0.390625 -1.078125 1.046875l0 7.156248l-1.6875 0l0 -13.999998l1.6875 0l0 5.609375zm9.039307 3.375q0 -1.0625 0.3125 -1.984375q0.3125 -0.921875 0.890625 -1.59375q0.578125 -0.671875 1.40625 -1.046875q0.828125 -0.390625 1.859375 -0.390625q1.046875 0 1.875 0.390625q0.84375 0.375 1.421875 1.046875q0.578125 0.671875 0.890625 1.59375q0.3125 0.921875 0.3125 1.984375l0 0.2031231q0 1.0625 -0.3125 1.96875q-0.3125 0.90625 -0.890625 1.59375q-0.578125 0.671875 -1.40625 1.0625q-0.828125 0.375 -1.859375 0.375q-1.046875 0 -1.890625 -0.375q-0.828125 -0.390625 -1.40625 -1.0625q-0.578125 -0.6875 -0.890625 -1.59375q-0.3125 -0.90625 -0.3125 -1.96875l0 -0.2031231zm1.6875 0.2031231q0 0.71875 0.171875 1.390625q0.171875 0.65625 0.515625 1.15625q0.359375 0.5 0.890625 0.796875q0.53125 0.28125 1.234375 0.28125q0.6875 0 1.203125 -0.28125q0.53125 -0.296875 0.875 -0.796875q0.359375 -0.5 0.53125 -1.15625q0.171875 -0.671875 0.171875 -1.390625l0 -0.2031231q0 -0.71875 -0.1875 -1.375q-0.171875 -0.671875 -0.53125 -1.171875q-0.34375 -0.5 -0.875 -0.796875q-0.515625 -0.296875 -1.21875 -0.296875q-0.703125 0 -1.21875 0.296875q-0.515625 0.296875 -0.875 0.796875q-0.34375 0.5 -0.515625 1.171875q-0.171875 0.65625 -0.171875 1.375l0 0.2031231zm16.445587 -5.218748q0.234375 0 0.484375 0.015625q0.265625 0 0.484375 0.03125q0.234375 0.03125 0.421875 0.078125q0.203125 0.046875 0.34375 0.109375l-0.234375 1.640625q-0.484375 -0.109375 -0.9375 -0.15625q-0.4375 -0.046875 -0.921875 -0.046875q-1.1875 0 -1.921875 0.546875q-0.734375 0.53125 -1.078125 1.484375l0 6.328123l-1.6875 0l0 -9.859373l1.59375 0l0.09375 1.5625q0.59375 -0.796875 1.4375 -1.265625q0.84375 -0.46875 1.921875 -0.46875zm8.726807 -2.21875l0 2.390625l3.75 0l0 1.3125l-3.75 0l0 5.343748q0 0.578125 0.140625 0.953125q0.140625 0.375 0.390625 0.59375q0.265625 0.21875 0.59375 0.3125q0.34375 0.09375 0.71875 0.09375q0.265625 0 0.546875 -0.03125q0.296875 -0.03125 0.578125 -0.078125q0.28125 -0.046875 0.515625 -0.09375q0.25 -0.046875 0.40625 -0.09375l0.234375 1.203125q-0.21875 0.125 -0.515625 0.21875q-0.296875 0.09375 -0.65625 0.15625q-0.34375 0.078125 -0.75 0.109375q-0.390625 0.046875 -0.78125 0.046875q-0.65625 0 -1.234375 -0.1875q-0.5625 -0.1875 -0.984375 -0.59375q-0.421875 -0.40625 -0.671875 -1.046875q-0.234375 -0.640625 -0.234375 -1.5625l0 -5.343748l-2.578125 0l0 -1.3125l2.578125 0l0 -2.390625l1.703125 0zm26.750519 7.437498q0 1.046875 -0.265625 1.96875q-0.25 0.90625 -0.75 1.59375q-0.484375 0.671875 -1.203125 1.0625q-0.71875 0.375 -1.65625 0.375q-0.953125 0 -1.65625 -0.328125q-0.6875 -0.34375 -1.1875 -0.984375l-0.078125 1.125l-1.546875 0l0 -13.999998l1.6875 0l0 5.203125q0.484375 -0.609375 1.15625 -0.921875q0.6875 -0.3125 1.609375 -0.3125q0.9375 0 1.65625 0.375q0.734375 0.359375 1.21875 1.03125q0.5 0.65625 0.75 1.59375q0.265625 0.921875 0.265625 2.015625l0 0.2031231zm-1.6875 -0.2031231q0 -0.71875 -0.140625 -1.359375q-0.140625 -0.65625 -0.453125 -1.15625q-0.3125 -0.5 -0.8125 -0.78125q-0.5 -0.296875 -1.21875 -0.296875q-0.4375 0 -0.8125 0.125q-0.359375 0.109375 -0.65625 0.3125q-0.28125 0.203125 -0.5 0.484375q-0.21875 0.265625 -0.375 0.59375l0 4.312498q0.15625 0.328125 0.375 0.609375q0.234375 0.28125 0.515625 0.5q0.296875 0.203125 0.65625 0.3125q0.375 0.109375 0.8125 0.109375q0.6875 0 1.1875 -0.28125q0.5 -0.296875 0.8125 -0.78125q0.3125 -0.5 0.453125 -1.140625q0.15625 -0.640625 0.15625 -1.359375l0 -0.2031231zm11.008087 5.015623q-0.09375 -0.1875 -0.15625 -0.46875q-0.0625 -0.296875 -0.09375 -0.609375q-0.25 0.265625 -0.5625 0.5q-0.3125 0.21875 -0.703125 0.390625q-0.375 0.171875 -0.8125 0.265625q-0.421875 0.109375 -0.890625 0.109375q-0.796875 0 -1.4375 -0.21875q-0.625 -0.234375 -1.0625 -0.625q-0.4375 -0.390625 -0.6875 -0.921875q-0.234375 -0.53125 -0.234375 -1.15625q0 -0.8125 0.3125 -1.421875q0.328125 -0.609375 0.921875 -1.0156231q0.59375 -0.40625 1.421875 -0.59375q0.84375 -0.203125 1.875 -0.203125l1.828125 0l0 -0.78125q0 -0.453125 -0.171875 -0.796875q-0.15625 -0.359375 -0.453125 -0.609375q-0.296875 -0.25 -0.734375 -0.390625q-0.421875 -0.140625 -0.96875 -0.140625q-0.5 0 -0.90625 0.140625q-0.390625 0.125 -0.671875 0.34375q-0.265625 0.203125 -0.421875 0.484375q-0.140625 0.28125 -0.140625 0.59375l-1.6875 0q0 -0.53125 0.265625 -1.046875q0.28125 -0.53125 0.78125 -0.9375q0.5 -0.421875 1.21875 -0.671875q0.734375 -0.25 1.65625 -0.25q0.84375 0 1.5625 0.203125q0.71875 0.203125 1.234375 0.625q0.53125 0.40625 0.828125 1.03125q0.296875 0.609375 0.296875 1.4375l0 4.578123q0 0.5 0.09375 1.046875q0.09375 0.546875 0.25 0.96875l0 0.140625l-1.75 0zm-2.984375 -1.28125q0.5 0 0.921875 -0.125q0.4375 -0.140625 0.78125 -0.34375q0.34375 -0.203125 0.59375 -0.46875q0.265625 -0.28125 0.40625 -0.5625l0 -2.0l-1.5625 0q-1.46875 0 -2.296875 0.4375q-0.8125 0.4375 -0.8125 1.375q0 0.359375 0.125 0.671875q0.125 0.3125 0.359375 0.53125q0.25 0.21875 0.625 0.359375q0.375 0.125 0.859375 0.125zm14.258057 -1.328125q0 -0.3125 -0.125 -0.546875q-0.125 -0.234375 -0.40625 -0.4375q-0.28125 -0.203125 -0.75 -0.375q-0.453125 -0.171875 -1.140625 -0.296875q-0.859375 -0.1875 -1.5625 -0.421875q-0.6875 -0.25 -1.1875 -0.5937481q-0.484375 -0.34375 -0.765625 -0.796875q-0.265625 -0.46875 -0.265625 -1.078125q0 -0.59375 0.28125 -1.109375q0.28125 -0.53125 0.78125 -0.921875q0.515625 -0.390625 1.21875 -0.609375q0.703125 -0.234375 1.5625 -0.234375q0.90625 0 1.625 0.234375q0.734375 0.234375 1.25 0.65625q0.515625 0.40625 0.78125 0.96875q0.28125 0.5625 0.28125 1.21875l-1.6875 0q0 -0.328125 -0.171875 -0.625q-0.15625 -0.3125 -0.453125 -0.546875q-0.28125 -0.234375 -0.703125 -0.375q-0.40625 -0.15625 -0.921875 -0.15625q-0.546875 0 -0.953125 0.125q-0.40625 0.109375 -0.671875 0.3125q-0.265625 0.203125 -0.40625 0.46875q-0.140625 0.265625 -0.140625 0.546875q0 0.28125 0.109375 0.515625q0.109375 0.234375 0.375 0.421875q0.28125 0.171875 0.734375 0.328125q0.453125 0.140625 1.140625 0.265625q0.90625 0.203125 1.625 0.453125q0.71875 0.2499981 1.203125 0.6093731q0.5 0.34375 0.75 0.8125q0.265625 0.453125 0.265625 1.0625q0 0.65625 -0.296875 1.203125q-0.28125 0.53125 -0.8125 0.921875q-0.53125 0.375 -1.265625 0.59375q-0.734375 0.203125 -1.609375 0.203125q-1.015625 0 -1.796875 -0.265625q-0.78125 -0.28125 -1.328125 -0.71875q-0.53125 -0.4375 -0.828125 -1.015625q-0.28125 -0.59375 -0.28125 -1.21875l1.6875 0q0.03125 0.515625 0.265625 0.875q0.25 0.359375 0.609375 0.578125q0.359375 0.21875 0.796875 0.3125q0.4375 0.078125 0.875 0.078125q1.0625 0 1.671875 -0.390625q0.625 -0.390625 0.640625 -1.03125zm8.992462 2.796875q-1.03125 0 -1.90625 -0.359375q-0.875 -0.359375 -1.5 -0.984375q-0.609375 -0.640625 -0.953125 -1.515625q-0.34375 -0.875 -0.34375 -1.90625l0 -0.390625q0 -1.1874981 0.375 -2.124998q0.390625 -0.953125 1.015625 -1.59375q0.640625 -0.65625 1.4375 -1.0q0.8125 -0.34375 1.65625 -0.34375q1.0625 0 1.859375 0.375q0.796875 0.359375 1.328125 1.015625q0.53125 0.640625 0.78125 1.53125q0.265625 0.875 0.265625 1.90625l0 0.7499981l-7.03125 0q0.015625 0.6875 0.25 1.28125q0.234375 0.578125 0.640625 1.03125q0.40625 0.4375 0.96875 0.703125q0.5625 0.25 1.25 0.25q0.90625 0 1.59375 -0.359375q0.703125 -0.375 1.171875 -0.96875l1.03125 0.796875q-0.25 0.375 -0.625 0.71875q-0.359375 0.328125 -0.84375 0.59375q-0.484375 0.265625 -1.09375 0.421875q-0.609375 0.171875 -1.328125 0.171875zm-0.21875 -8.843748q-0.515625 0 -0.96875 0.1875q-0.453125 0.1875 -0.8125 0.546875q-0.359375 0.359375 -0.625 0.890625q-0.25 0.515625 -0.34375 1.203125l5.296875 0l0 -0.125q-0.015625 -0.5 -0.1875 -0.984375q-0.15625 -0.484375 -0.46875 -0.859375q-0.296875 -0.390625 -0.765625 -0.625q-0.46875 -0.234375 -1.125 -0.234375z" fill-rule="nonzero"/><path fill="#000000" fill-opacity="0.0" d="m518.26514 130.71129l87.212585 0l0 40.88188l-87.212585 0z" fill-rule="evenodd"/><path fill="#434343" d="m537.1714 157.63129l-1.59375 0l0 -6.125l-5.4375 0l0 6.125l-1.59375 0l0 -13.265625l1.59375 0l0 5.703125l5.4375 0l0 -5.703125l1.59375 0l0 13.265625zm7.2268066 0.1875q-1.03125 0 -1.90625 -0.359375q-0.875 -0.359375 -1.5 -0.984375q-0.609375 -0.640625 -0.953125 -1.515625q-0.34375 -0.875 -0.34375 -1.90625l0 -0.390625q0 -1.1875 0.375 -2.125q0.390625 -0.953125 1.015625 -1.59375q0.640625 -0.65625 1.4375 -1.0q0.8125 -0.34375 1.65625 -0.34375q1.0625 0 1.859375 0.375q0.796875 0.359375 1.328125 1.015625q0.53125 0.640625 0.78125 1.53125q0.265625 0.875 0.265625 1.90625l0 0.75l-7.03125 0q0.015625 0.6875 0.25 1.28125q0.234375 0.578125 0.640625 1.03125q0.40625 0.4375 0.96875 0.703125q0.5625 0.25 1.25 0.25q0.90625 0 1.59375 -0.359375q0.703125 -0.375 1.171875 -0.96875l1.03125 0.796875q-0.25 0.375 -0.625 0.71875q-0.359375 0.328125 -0.84375 0.59375q-0.484375 0.265625 -1.09375 0.421875q-0.609375 0.171875 -1.328125 0.171875zm-0.21875 -8.84375q-0.515625 0 -0.96875 0.1875q-0.453125 0.1875 -0.8125 0.546875q-0.359375 0.359375 -0.625 0.890625q-0.25 0.515625 -0.34375 1.203125l5.296875 0l0 -0.125q-0.015625 -0.5 -0.1875 -0.984375q-0.15625 -0.484375 -0.46875 -0.859375q-0.296875 -0.390625 -0.765625 -0.625q-0.46875 -0.234375 -1.125 -0.234375zm7.3205566 -1.203125l5.046875 0l0 8.40625l3.21875 0l0 1.453125l-8.265625 0l0 -1.453125l3.359375 0l0 -6.9375l-3.359375 0l0 -1.46875zm3.140625 -2.578125q0 -0.421875 0.25 -0.703125q0.25 -0.296875 0.765625 -0.296875q0.5 0 0.75 0.296875q0.25 0.28125 0.25 0.703125q0 0.40625 -0.25 0.6875q-0.25 0.265625 -0.75 0.265625q-0.515625 0 -0.765625 -0.265625q-0.25 -0.28125 -0.25 -0.6875zm7.4924927 7.421875q0 -1.09375 0.265625 -2.015625q0.265625 -0.9375 0.765625 -1.59375q0.515625 -0.671875 1.25 -1.03125q0.734375 -0.375 1.640625 -0.375q0.921875 0 1.609375 0.328125q0.6875 0.3125 1.171875 0.921875l0.078125 -1.078125l1.53125 0l0 9.65625q0 0.96875 -0.3125 1.71875q-0.296875 0.765625 -0.859375 1.28125q-0.546875 0.53125 -1.3125 0.796875q-0.765625 0.28125 -1.6875 0.28125q-0.390625 0 -0.890625 -0.09375q-0.484375 -0.078125 -0.984375 -0.28125q-0.5 -0.1875 -0.96875 -0.515625q-0.46875 -0.328125 -0.8125 -0.8125l0.875 -1.0q0.3125 0.375 0.640625 0.625q0.328125 0.265625 0.65625 0.421875q0.34375 0.15625 0.671875 0.21875q0.34375 0.0625 0.6875 0.0625q0.59375 0 1.078125 -0.171875q0.484375 -0.171875 0.828125 -0.5q0.34375 -0.328125 0.515625 -0.828125q0.1875 -0.484375 0.1875 -1.125l0 -0.84375q-0.484375 0.5625 -1.15625 0.859375q-0.671875 0.296875 -1.5625 0.296875q-0.890625 0 -1.625 -0.375q-0.734375 -0.390625 -1.234375 -1.0625q-0.5 -0.6875 -0.78125 -1.59375q-0.265625 -0.921875 -0.265625 -1.96875l0 -0.203125zm1.671875 0.203125q0 0.71875 0.15625 1.359375q0.15625 0.640625 0.46875 1.140625q0.328125 0.484375 0.828125 0.78125q0.5 0.28125 1.203125 0.28125q0.4375 0 0.78125 -0.09375q0.359375 -0.109375 0.640625 -0.296875q0.28125 -0.203125 0.5 -0.46875q0.21875 -0.265625 0.375 -0.578125l0 -4.515625q-0.15625 -0.3125 -0.375 -0.5625q-0.21875 -0.265625 -0.515625 -0.453125q-0.28125 -0.1875 -0.625 -0.28125q-0.34375 -0.109375 -0.765625 -0.109375q-0.703125 0 -1.21875 0.296875q-0.5 0.28125 -0.828125 0.78125q-0.3125 0.5 -0.46875 1.15625q-0.15625 0.640625 -0.15625 1.359375l0 0.203125zm11.508057 -3.578125q0.53125 -0.78125 1.296875 -1.203125q0.78125 -0.4375 1.75 -0.4375q0.78125 0 1.40625 0.21875q0.640625 0.21875 1.078125 0.703125q0.453125 0.46875 0.6875 1.1875q0.25 0.71875 0.25 1.71875l0 6.203125l-1.6875 0l0 -6.21875q0 -1.21875 -0.578125 -1.8125q-0.578125 -0.59375 -1.65625 -0.578125q-0.8125 0 -1.46875 0.40625q-0.65625 0.390625 -1.078125 1.046875l0 7.15625l-1.6875 0l0 -14.0l1.6875 0l0 5.609375zm13.508057 -3.859375l0 2.390625l3.75 0l0 1.3125l-3.75 0l0 5.34375q0 0.578125 0.140625 0.953125q0.140625 0.375 0.390625 0.59375q0.265625 0.21875 0.59375 0.3125q0.34375 0.09375 0.71875 0.09375q0.265625 0 0.546875 -0.03125q0.296875 -0.03125 0.578125 -0.078125q0.28125 -0.046875 0.515625 -0.09375q0.25 -0.046875 0.40625 -0.09375l0.234375 1.203125q-0.21875 0.125 -0.515625 0.21875q-0.296875 0.09375 -0.65625 0.15625q-0.34375 0.078125 -0.75 0.109375q-0.390625 0.046875 -0.78125 0.046875q-0.65625 0 -1.234375 -0.1875q-0.5625 -0.1875 -0.984375 -0.59375q-0.421875 -0.40625 -0.671875 -1.046875q-0.234375 -0.640625 -0.234375 -1.5625l0 -5.34375l-2.578125 0l0 -1.3125l2.578125 0l0 -2.390625l1.703125 0z" fill-rule="nonzero"/><path fill="#000000" fill-opacity="0.0" d="m744.4252 261.28348c0 5.1749268 -4.1951294 9.370056 -9.370056 9.370056l-294.78738 0c-5.1749573 0 -9.370087 4.1951294 -9.370087 9.370087l0 0c0 -5.1749573 -4.1951294 -9.370087 -9.370087 -9.370087l-294.7874 0l0 0c-5.1749496 0 -9.370079 -4.1951294 -9.370079 -9.370056z" fill-rule="evenodd"/><path fill="#000000" fill-opacity="0.0" d="m744.4252 261.28348c0 5.1749268 -4.1951294 9.370056 -9.370056 9.370056l-294.78738 0c-5.1749573 0 -9.370087 4.1951294 -9.370087 9.370087l0 0c0 -5.1749573 -4.1951294 -9.370087 -9.370087 -9.370087l-294.7874 0l0 0c-5.1749496 0 -9.370079 -4.1951294 -9.370079 -9.370056" fill-rule="evenodd"/><path stroke="#434343" stroke-width="1.0" stroke-linejoin="round" stroke-linecap="butt" d="m744.4252 261.28348c0 5.1749268 -4.1951294 9.370056 -9.370056 9.370056l-294.78738 0c-5.1749573 0 -9.370087 4.1951294 -9.370087 9.370087l0 0c0 -5.1749573 -4.1951294 -9.370087 -9.370087 -9.370087l-294.7874 0l0 0c-5.1749496 0 -9.370079 -4.1951294 -9.370079 -9.370056" fill-rule="evenodd"/><path fill="#000000" fill-opacity="0.0" d="m229.95276 60.213154c0 -5.1749535 4.1951294 -9.370079 9.370071 -9.370079l181.68504 0c5.1749573 0 9.370087 -4.1951294 9.370087 -9.370079l0 0c0 5.1749496 4.1951294 9.370079 9.370056 9.370079l181.68503 0l0 0c5.174988 0 9.370117 4.1951256 9.370117 9.370079z" fill-rule="evenodd"/><path fill="#000000" fill-opacity="0.0" d="m229.95276 60.213154c0 -5.1749535 4.1951294 -9.370079 9.370071 -9.370079l181.68504 0c5.1749573 0 9.370087 -4.1951294 9.370087 -9.370079l0 0c0 5.1749496 4.1951294 9.370079 9.370056 9.370079l181.68503 0l0 0c5.174988 0 9.370117 4.1951256 9.370117 9.370079" fill-rule="evenodd"/><path stroke="#434343" stroke-width="1.0" stroke-linejoin="round" stroke-linecap="butt" d="m229.95276 60.213154c0 -5.1749535 4.1951294 -9.370079 9.370071 -9.370079l181.68504 0c5.1749573 0 9.370087 -4.1951294 9.370087 -9.370079l0 0c0 5.1749496 4.1951294 9.370079 9.370056 9.370079l181.68503 0l0 0c5.174988 0 9.370117 4.1951256 9.370117 9.370079" fill-rule="evenodd"/><path fill="#000000" fill-opacity="0.0" d="m618.27295 235.38058c-5.1749268 0 -9.370056 -4.1951294 -9.370056 -9.370087l0 -65.68504c0 -5.174942 -4.1951294 -9.370071 -9.370056 -9.370071l0 0c5.1749268 0 9.370056 -4.1951294 9.370056 -9.370087l0 -65.685036l0 0c0 -5.1749496 4.1951294 -9.370079 9.370056 -9.370079z" fill-rule="evenodd"/><path fill="#000000" fill-opacity="0.0" d="m618.27295 235.38058c-5.1749268 0 -9.370056 -4.1951294 -9.370056 -9.370087l0 -65.68504c0 -5.174942 -4.1951294 -9.370071 -9.370056 -9.370071l0 0c5.1749268 0 9.370056 -4.1951294 9.370056 -9.370087l0 -65.685036l0 0c0 -5.1749496 4.1951294 -9.370079 9.370056 -9.370079" fill-rule="evenodd"/><path stroke="#434343" stroke-width="1.0" stroke-linejoin="round" stroke-linecap="butt" d="m618.27295 235.38058c-5.1749268 0 -9.370056 -4.1951294 -9.370056 -9.370087l0 -65.68504c0 -5.174942 -4.1951294 -9.370071 -9.370056 -9.370071l0 0c5.1749268 0 9.370056 -4.1951294 9.370056 -9.370087l0 -65.685036l0 0c0 -5.1749496 4.1951294 -9.370079 9.370056 -9.370079" fill-rule="evenodd"/><path fill="#000000" fill-opacity="0.0" d="m744.42255 240.53543c0 5.1749573 -4.1951294 9.370087 -9.370056 9.370087l-38.724426 0c-5.1749268 0 -9.370056 4.195114 -9.370056 9.370087l0 0c0 -5.1749725 -4.1951294 -9.370087 -9.370056 -9.370087l-38.724426 0l0 0c-5.174988 0 -9.370117 -4.1951294 -9.370117 -9.370087z" fill-rule="evenodd"/><path fill="#000000" fill-opacity="0.0" d="m744.42255 240.53543c0 5.1749573 -4.1951294 9.370087 -9.370056 9.370087l-38.724426 0c-5.1749268 0 -9.370056 4.195114 -9.370056 9.370087l0 0c0 -5.1749725 -4.1951294 -9.370087 -9.370056 -9.370087l-38.724426 0l0 0c-5.174988 0 -9.370117 -4.1951294 -9.370117 -9.370087" fill-rule="evenodd"/><path stroke="#434343" stroke-width="1.0" stroke-linejoin="round" stroke-linecap="butt" d="m744.42255 240.53543c0 5.1749573 -4.1951294 9.370087 -9.370056 9.370087l-38.724426 0c-5.1749268 0 -9.370056 4.195114 -9.370056 9.370087l0 0c0 -5.1749725 -4.1951294 -9.370087 -9.370056 -9.370087l-38.724426 0l0 0c-5.174988 0 -9.370117 -4.1951294 -9.370117 -9.370087" fill-rule="evenodd"/><path fill="#000000" fill-opacity="0.0" d="m686.958 259.2756l0 42.42517" fill-rule="evenodd"/><path stroke="#000000" stroke-width="1.0" stroke-linejoin="round" stroke-linecap="butt" d="m686.958 259.2756l0 42.42517" fill-rule="evenodd"/><path fill="#000000" fill-opacity="0.0" d="m630.15485 298.09186l113.60632 0l0 40.881897l-113.60632 0z" fill-rule="evenodd"/><path fill="#434343" d="m649.0455 325.01187l-1.703125 0l-5.15625 -9.90625l-0.03125 9.90625l-1.703125 0l0 -13.265625l1.71875 0l5.140625 9.890625l0.03125 -9.890625l1.703125 0l0 13.265625zm7.2424927 0.1875q-1.03125 0 -1.90625 -0.359375q-0.875 -0.359375 -1.5 -0.984375q-0.609375 -0.640625 -0.953125 -1.515625q-0.34375 -0.875 -0.34375 -1.90625l0 -0.390625q0 -1.1875 0.375 -2.125q0.390625 -0.953125 1.015625 -1.59375q0.640625 -0.65625 1.4375 -1.0q0.8125 -0.34375 1.65625 -0.34375q1.0625 0 1.859375 0.375q0.796875 0.359375 1.328125 1.015625q0.53125 0.640625 0.78125 1.53125q0.265625 0.875 0.265625 1.90625l0 0.75l-7.03125 0q0.015625 0.6875 0.25 1.28125q0.234375 0.578125 0.640625 1.03125q0.40625 0.4375 0.96875 0.703125q0.5625 0.25 1.25 0.25q0.90625 0 1.59375 -0.359375q0.703125 -0.375 1.171875 -0.96875l1.03125 0.796875q-0.25 0.375 -0.625 0.71875q-0.359375 0.328125 -0.84375 0.59375q-0.484375 0.265625 -1.09375 0.421875q-0.609375 0.171875 -1.328125 0.171875zm-0.21875 -8.84375q-0.515625 0 -0.96875 0.1875q-0.453125 0.1875 -0.8125 0.546875q-0.359375 0.359375 -0.625 0.890625q-0.25 0.515625 -0.34375 1.203125l5.296875 0l0 -0.125q-0.015625 -0.5 -0.1875 -0.984375q-0.15625 -0.484375 -0.46875 -0.859375q-0.296875 -0.390625 -0.765625 -0.625q-0.46875 -0.234375 -1.125 -0.234375zm8.554932 5.078125l0.203125 1.421875l0.25 -1.421875l1.5625 -6.28125l1.09375 0l1.5625 6.28125l0.265625 1.5625l0.25 -1.5625l1.09375 -6.28125l1.484375 0l-2.09375 9.859375l-1.328125 0l-1.53125 -6.046875l-0.265625 -1.515625l-0.234375 1.515625l-1.53125 6.046875l-1.328125 0l-2.09375 -9.859375l1.5 0l1.140625 6.28125zm29.250488 -1.234375q0 1.046875 -0.265625 1.96875q-0.25 0.90625 -0.75 1.59375q-0.484375 0.671875 -1.203125 1.0625q-0.71875 0.375 -1.65625 0.375q-0.953125 0 -1.65625 -0.328125q-0.6875 -0.34375 -1.1875 -0.984375l-0.078125 1.125l-1.546875 0l0 -14.0l1.6875 0l0 5.203125q0.484375 -0.609375 1.15625 -0.921875q0.6875 -0.3125 1.609375 -0.3125q0.9375 0 1.65625 0.375q0.734375 0.359375 1.21875 1.03125q0.5 0.65625 0.75 1.59375q0.265625 0.921875 0.265625 2.015625l0 0.203125zm-1.6875 -0.203125q0 -0.71875 -0.140625 -1.359375q-0.140625 -0.65625 -0.453125 -1.15625q-0.3125 -0.5 -0.8125 -0.78125q-0.5 -0.296875 -1.21875 -0.296875q-0.4375 0 -0.8125 0.125q-0.359375 0.109375 -0.65625 0.3125q-0.28125 0.203125 -0.5 0.484375q-0.21875 0.265625 -0.375 0.59375l0 4.3125q0.15625 0.328125 0.375 0.609375q0.234375 0.28125 0.515625 0.5q0.296875 0.203125 0.65625 0.3125q0.375 0.109375 0.8125 0.109375q0.6875 0 1.1875 -0.28125q0.5 -0.296875 0.8125 -0.78125q0.3125 -0.5 0.453125 -1.140625q0.15625 -0.640625 0.15625 -1.359375l0 -0.203125zm11.008118 5.015625q-0.09375 -0.1875 -0.15625 -0.46875q-0.0625 -0.296875 -0.09375 -0.609375q-0.25 0.265625 -0.5625 0.5q-0.3125 0.21875 -0.703125 0.390625q-0.375 0.171875 -0.8125 0.265625q-0.421875 0.109375 -0.890625 0.109375q-0.796875 0 -1.4375 -0.21875q-0.625 -0.234375 -1.0625 -0.625q-0.4375 -0.390625 -0.6875 -0.921875q-0.234375 -0.53125 -0.234375 -1.15625q0 -0.8125 0.3125 -1.421875q0.328125 -0.609375 0.921875 -1.015625q0.59375 -0.40625 1.421875 -0.59375q0.84375 -0.203125 1.875 -0.203125l1.828125 0l0 -0.78125q0 -0.453125 -0.171875 -0.796875q-0.15625 -0.359375 -0.453125 -0.609375q-0.296875 -0.25 -0.734375 -0.390625q-0.421875 -0.140625 -0.96875 -0.140625q-0.5 0 -0.90625 0.140625q-0.390625 0.125 -0.671875 0.34375q-0.265625 0.203125 -0.421875 0.484375q-0.140625 0.28125 -0.140625 0.59375l-1.6875 0q0 -0.53125 0.265625 -1.046875q0.28125 -0.53125 0.78125 -0.9375q0.5 -0.421875 1.21875 -0.671875q0.734375 -0.25 1.65625 -0.25q0.84375 0 1.5625 0.203125q0.71875 0.203125 1.234375 0.625q0.53125 0.40625 0.828125 1.03125q0.296875 0.609375 0.296875 1.4375l0 4.578125q0 0.5 0.09375 1.046875q0.09375 0.546875 0.25 0.96875l0 0.140625l-1.75 0zm-2.984375 -1.28125q0.5 0 0.921875 -0.125q0.4375 -0.140625 0.78125 -0.34375q0.34375 -0.203125 0.59375 -0.46875q0.265625 -0.28125 0.40625 -0.5625l0 -2.0l-1.5625 0q-1.46875 0 -2.296875 0.4375q-0.8125 0.4375 -0.8125 1.375q0 0.359375 0.125 0.671875q0.125 0.3125 0.359375 0.53125q0.25 0.21875 0.625 0.359375q0.375 0.125 0.859375 0.125zm14.258057 -1.328125q0 -0.3125 -0.125 -0.546875q-0.125 -0.234375 -0.40625 -0.4375q-0.28125 -0.203125 -0.75 -0.375q-0.453125 -0.171875 -1.140625 -0.296875q-0.859375 -0.1875 -1.5625 -0.421875q-0.6875 -0.25 -1.1875 -0.59375q-0.484375 -0.34375 -0.765625 -0.796875q-0.265625 -0.46875 -0.265625 -1.078125q0 -0.59375 0.28125 -1.109375q0.28125 -0.53125 0.78125 -0.921875q0.515625 -0.390625 1.21875 -0.609375q0.703125 -0.234375 1.5625 -0.234375q0.90625 0 1.625 0.234375q0.734375 0.234375 1.25 0.65625q0.515625 0.40625 0.78125 0.96875q0.28125 0.5625 0.28125 1.21875l-1.6875 0q0 -0.328125 -0.171875 -0.625q-0.15625 -0.3125 -0.453125 -0.546875q-0.28125 -0.234375 -0.703125 -0.375q-0.40625 -0.15625 -0.921875 -0.15625q-0.546875 0 -0.953125 0.125q-0.40625 0.109375 -0.671875 0.3125q-0.265625 0.203125 -0.40625 0.46875q-0.140625 0.265625 -0.140625 0.546875q0 0.28125 0.109375 0.515625q0.109375 0.234375 0.375 0.421875q0.28125 0.171875 0.734375 0.328125q0.453125 0.140625 1.140625 0.265625q0.90625 0.203125 1.625 0.453125q0.71875 0.25 1.203125 0.609375q0.5 0.34375 0.75 0.8125q0.265625 0.453125 0.265625 1.0625q0 0.65625 -0.296875 1.203125q-0.28125 0.53125 -0.8125 0.921875q-0.53125 0.375 -1.265625 0.59375q-0.734375 0.203125 -1.609375 0.203125q-1.015625 0 -1.796875 -0.265625q-0.78125 -0.28125 -1.328125 -0.71875q-0.53125 -0.4375 -0.828125 -1.015625q-0.28125 -0.59375 -0.28125 -1.21875l1.6875 0q0.03125 0.515625 0.265625 0.875q0.25 0.359375 0.609375 0.578125q0.359375 0.21875 0.796875 0.3125q0.4375 0.078125 0.875 0.078125q1.0625 0 1.671875 -0.390625q0.625 -0.390625 0.640625 -1.03125zm8.992432 2.796875q-1.03125 0 -1.90625 -0.359375q-0.875 -0.359375 -1.5 -0.984375q-0.609375 -0.640625 -0.953125 -1.515625q-0.34375 -0.875 -0.34375 -1.90625l0 -0.390625q0 -1.1875 0.375 -2.125q0.390625 -0.953125 1.015625 -1.59375q0.640625 -0.65625 1.4375 -1.0q0.8125 -0.34375 1.65625 -0.34375q1.0625 0 1.859375 0.375q0.796875 0.359375 1.328125 1.015625q0.53125 0.640625 0.78125 1.53125q0.265625 0.875 0.265625 1.90625l0 0.75l-7.03125 0q0.015625 0.6875 0.25 1.28125q0.234375 0.578125 0.640625 1.03125q0.40625 0.4375 0.96875 0.703125q0.5625 0.25 1.25 0.25q0.90625 0 1.59375 -0.359375q0.703125 -0.375 1.171875 -0.96875l1.03125 0.796875q-0.25 0.375 -0.625 0.71875q-0.359375 0.328125 -0.84375 0.59375q-0.484375 0.265625 -1.09375 0.421875q-0.609375 0.171875 -1.328125 0.171875zm-0.21875 -8.84375q-0.515625 0 -0.96875 0.1875q-0.453125 0.1875 -0.8125 0.546875q-0.359375 0.359375 -0.625 0.890625q-0.25 0.515625 -0.34375 1.203125l5.296875 0l0 -0.125q-0.015625 -0.5 -0.1875 -0.984375q-0.15625 -0.484375 -0.46875 -0.859375q-0.296875 -0.390625 -0.765625 -0.625q-0.46875 -0.234375 -1.125 -0.234375z" fill-rule="nonzero"/><path fill="#000000" fill-opacity="0.0" d="m640.4409 332.2966l87.21265 0l0 24.0l-87.21265 0z" fill-rule="evenodd"/><path fill="#000000" fill-opacity="0.0" d="m611.22833 318.88507l145.63782 0l0 40.881897l-145.63782 0z" fill-rule="evenodd"/><path fill="#434343" d="m628.3509 335.04694q0 -0.734375 0.109375 -1.390625q0.125 -0.65625 0.3125 -1.21875q0.203125 -0.5625 0.453125 -1.015625q0.265625 -0.46875 0.546875 -0.828125q0.28125 -0.359375 0.5625 -0.609375q0.296875 -0.265625 0.5625 -0.40625l0.203125 0.625q-0.328125 0.25 -0.65625 0.671875q-0.3125 0.421875 -0.5625 1.03125q-0.25 0.59375 -0.421875 1.375q-0.15625 0.78125 -0.15625 1.765625l0 0.0625q0 0.96875 0.15625 1.765625q0.171875 0.78125 0.421875 1.375q0.25 0.609375 0.5625 1.03125q0.328125 0.4375 0.65625 0.703125l-0.203125 0.59375q-0.265625 -0.15625 -0.5625 -0.40625q-0.28125 -0.25 -0.5625 -0.609375q-0.28125 -0.359375 -0.546875 -0.828125q-0.25 -0.453125 -0.453125 -1.015625q-0.1875 -0.5625 -0.3125 -1.21875q-0.109375 -0.65625 -0.109375 -1.390625l0 -0.0625zm5.5979004 -4.921875l2.875 0l0 7.171875l1.828125 0l0 0.828125l-4.703125 0l0 -0.828125l1.90625 0l0 -6.328125l-1.90625 0l0 -0.84375zm5.9729614 5.140625q0 -0.609375 0.171875 -1.125q0.171875 -0.53125 0.5 -0.921875q0.34375 -0.390625 0.8125 -0.609375q0.46875 -0.21875 1.0625 -0.21875q0.59375 0 1.0625 0.21875q0.484375 0.21875 0.8125 0.609375q0.34375 0.390625 0.515625 0.921875q0.171875 0.515625 0.171875 1.125l0 0.109375q0 0.609375 -0.171875 1.125q-0.171875 0.515625 -0.515625 0.90625q-0.328125 0.390625 -0.796875 0.609375q-0.46875 0.21875 -1.0625 0.21875q-0.59375 0 -1.078125 -0.21875q-0.46875 -0.21875 -0.8125 -0.609375q-0.328125 -0.390625 -0.5 -0.90625q-0.171875 -0.515625 -0.171875 -1.125l0 -0.109375zm0.953125 0.109375q0 0.40625 0.09375 0.796875q0.109375 0.375 0.3125 0.65625q0.203125 0.28125 0.5 0.453125q0.296875 0.171875 0.703125 0.171875q0.390625 0 0.6875 -0.171875q0.296875 -0.171875 0.5 -0.453125q0.203125 -0.28125 0.296875 -0.65625q0.109375 -0.390625 0.109375 -0.796875l0 -0.109375q0 -0.421875 -0.109375 -0.796875q-0.09375 -0.375 -0.296875 -0.65625q-0.203125 -0.296875 -0.5 -0.453125q-0.296875 -0.171875 -0.703125 -0.171875q-0.40625 0 -0.703125 0.171875q-0.28125 0.15625 -0.484375 0.453125q-0.203125 0.28125 -0.3125 0.65625q-0.09375 0.375 -0.09375 0.796875l0 0.109375zm6.5666504 -2.875l0.078125 0.828125q0.296875 -0.4375 0.734375 -0.6875q0.453125 -0.25 1.015625 -0.25q0.4375 0 0.796875 0.125q0.359375 0.125 0.609375 0.390625q0.265625 0.265625 0.40625 0.671875q0.140625 0.40625 0.140625 0.96875l0 3.578125l-0.96875 0l0 -3.546875q0 -0.375 -0.09375 -0.640625q-0.078125 -0.265625 -0.25 -0.421875q-0.15625 -0.15625 -0.390625 -0.234375q-0.234375 -0.078125 -0.546875 -0.078125q-0.484375 0 -0.84375 0.25q-0.359375 0.234375 -0.578125 0.640625l0 4.03125l-0.96875 0l0 -5.625l0.859375 0zm5.3635254 2.765625q0 -0.625 0.140625 -1.15625q0.15625 -0.53125 0.453125 -0.90625q0.296875 -0.390625 0.703125 -0.59375q0.421875 -0.21875 0.9375 -0.21875q0.53125 0 0.921875 0.1875q0.390625 0.1875 0.671875 0.53125l0.046875 -0.609375l0.875 0l0 5.5q0 0.5625 -0.1875 0.984375q-0.171875 0.4375 -0.484375 0.734375q-0.3125 0.3125 -0.75 0.46875q-0.4375 0.15625 -0.96875 0.15625q-0.21875 0 -0.5 -0.046875q-0.28125 -0.046875 -0.578125 -0.171875q-0.28125 -0.109375 -0.546875 -0.296875q-0.265625 -0.1875 -0.453125 -0.453125l0.5 -0.578125q0.171875 0.203125 0.359375 0.34375q0.1875 0.15625 0.375 0.25q0.203125 0.09375 0.390625 0.125q0.1875 0.046875 0.375 0.046875q0.34375 0 0.625 -0.109375q0.28125 -0.09375 0.46875 -0.28125q0.203125 -0.1875 0.296875 -0.46875q0.109375 -0.28125 0.109375 -0.65625l0 -0.484375q-0.28125 0.328125 -0.671875 0.5q-0.375 0.171875 -0.875 0.171875q-0.515625 0 -0.9375 -0.21875q-0.40625 -0.21875 -0.703125 -0.609375q-0.28125 -0.390625 -0.4375 -0.90625q-0.15625 -0.53125 -0.15625 -1.125l0 -0.109375zm0.953125 0.109375q0 0.40625 0.078125 0.78125q0.09375 0.359375 0.28125 0.640625q0.1875 0.28125 0.46875 0.453125q0.28125 0.15625 0.6875 0.15625q0.25 0 0.453125 -0.046875q0.203125 -0.0625 0.359375 -0.171875q0.15625 -0.109375 0.28125 -0.265625q0.125 -0.15625 0.21875 -0.328125l0 -2.578125q-0.09375 -0.1875 -0.21875 -0.328125q-0.125 -0.140625 -0.296875 -0.25q-0.15625 -0.109375 -0.359375 -0.171875q-0.1875 -0.0625 -0.421875 -0.0625q-0.40625 0 -0.703125 0.171875q-0.28125 0.171875 -0.46875 0.453125q-0.1875 0.28125 -0.28125 0.65625q-0.078125 0.375 -0.078125 0.78125l0 0.109375zm16.211487 -0.171875l-3.96875 0l0 -0.78125l3.96875 0l0 0.78125zm12.325989 1.421875q0 -0.171875 -0.0625 -0.296875q-0.0625 -0.140625 -0.234375 -0.25q-0.15625 -0.125 -0.421875 -0.21875q-0.265625 -0.09375 -0.65625 -0.171875q-0.484375 -0.109375 -0.890625 -0.234375q-0.390625 -0.140625 -0.671875 -0.328125q-0.28125 -0.203125 -0.4375 -0.46875q-0.15625 -0.265625 -0.15625 -0.609375q0 -0.34375 0.15625 -0.640625q0.15625 -0.3125 0.453125 -0.53125q0.296875 -0.21875 0.6875 -0.34375q0.40625 -0.140625 0.890625 -0.140625q0.515625 0 0.9375 0.140625q0.421875 0.125 0.703125 0.375q0.296875 0.234375 0.453125 0.5625q0.15625 0.3125 0.15625 0.6875l-0.953125 0q0 -0.1875 -0.09375 -0.359375q-0.09375 -0.171875 -0.265625 -0.3125q-0.171875 -0.140625 -0.40625 -0.21875q-0.234375 -0.078125 -0.53125 -0.078125q-0.3125 0 -0.546875 0.0625q-0.21875 0.0625 -0.375 0.1875q-0.15625 0.109375 -0.234375 0.265625q-0.078125 0.140625 -0.078125 0.3125q0 0.15625 0.0625 0.296875q0.0625 0.125 0.21875 0.234375q0.15625 0.09375 0.40625 0.1875q0.265625 0.078125 0.65625 0.15625q0.515625 0.109375 0.921875 0.25q0.421875 0.140625 0.703125 0.34375q0.28125 0.203125 0.421875 0.46875q0.15625 0.265625 0.15625 0.609375q0 0.375 -0.171875 0.6875q-0.171875 0.296875 -0.46875 0.515625q-0.296875 0.21875 -0.71875 0.34375q-0.421875 0.125 -0.921875 0.125q-0.578125 0 -1.03125 -0.15625q-0.4375 -0.15625 -0.75 -0.40625q-0.3125 -0.25 -0.484375 -0.578125q-0.15625 -0.34375 -0.15625 -0.703125l0.96875 0q0.015625 0.296875 0.15625 0.5q0.140625 0.203125 0.34375 0.328125q0.203125 0.125 0.453125 0.1875q0.25 0.046875 0.5 0.046875q0.609375 0 0.953125 -0.21875q0.359375 -0.234375 0.359375 -0.609375zm3.6292114 -3.296875q0.296875 -0.4375 0.734375 -0.6875q0.4375 -0.25 1.0 -0.25q0.4375 0 0.796875 0.125q0.359375 0.125 0.609375 0.40625q0.265625 0.265625 0.40625 0.6875q0.140625 0.40625 0.140625 0.96875l0 3.546875l-0.96875 0l0 -3.546875q0 -0.703125 -0.328125 -1.03125q-0.328125 -0.34375 -0.953125 -0.34375q-0.453125 0 -0.828125 0.234375q-0.375 0.21875 -0.609375 0.59375l0 4.09375l-0.96875 0l0 -8.0l0.96875 0l0 3.203125zm5.1604004 1.9375q0 -0.609375 0.171875 -1.125q0.171875 -0.53125 0.5 -0.921875q0.34375 -0.390625 0.8125 -0.609375q0.46875 -0.21875 1.0625 -0.21875q0.59375 0 1.0625 0.21875q0.484375 0.21875 0.8125 0.609375q0.34375 0.390625 0.515625 0.921875q0.171875 0.515625 0.171875 1.125l0 0.109375q0 0.609375 -0.171875 1.125q-0.171875 0.515625 -0.515625 0.90625q-0.328125 0.390625 -0.796875 0.609375q-0.46875 0.21875 -1.0625 0.21875q-0.59375 0 -1.078125 -0.21875q-0.46875 -0.21875 -0.8125 -0.609375q-0.328125 -0.390625 -0.5 -0.90625q-0.171875 -0.515625 -0.171875 -1.125l0 -0.109375zm0.953125 0.109375q0 0.40625 0.09375 0.796875q0.109375 0.375 0.3125 0.65625q0.203125 0.28125 0.5 0.453125q0.296875 0.171875 0.703125 0.171875q0.390625 0 0.6875 -0.171875q0.296875 -0.171875 0.5 -0.453125q0.203125 -0.28125 0.296875 -0.65625q0.109375 -0.390625 0.109375 -0.796875l0 -0.109375q0 -0.421875 -0.109375 -0.796875q-0.09375 -0.375 -0.296875 -0.65625q-0.203125 -0.296875 -0.5 -0.453125q-0.296875 -0.171875 -0.703125 -0.171875q-0.40625 0 -0.703125 0.171875q-0.28125 0.15625 -0.484375 0.453125q-0.203125 0.28125 -0.3125 0.65625q-0.09375 0.375 -0.09375 0.796875l0 0.109375zm9.394775 -2.984375q0.140625 0 0.28125 0.015625q0.140625 0 0.265625 0.015625q0.140625 0.015625 0.25 0.046875q0.125 0.03125 0.1875 0.0625l-0.125 0.9375q-0.28125 -0.0625 -0.53125 -0.09375q-0.25 -0.03125 -0.53125 -0.03125q-0.671875 0 -1.09375 0.3125q-0.421875 0.3125 -0.625 0.859375l0 3.609375l-0.953125 0l0 -5.625l0.90625 0l0.046875 0.890625q0.34375 -0.46875 0.828125 -0.734375q0.484375 -0.265625 1.09375 -0.265625zm4.9885254 -1.265625l0 1.375l2.140625 0l0 0.734375l-2.140625 0l0 3.0625q0 0.328125 0.078125 0.546875q0.078125 0.203125 0.21875 0.34375q0.15625 0.125 0.34375 0.171875q0.1875 0.046875 0.40625 0.046875q0.15625 0 0.3125 -0.015625q0.171875 -0.015625 0.328125 -0.03125q0.171875 -0.03125 0.296875 -0.0625q0.140625 -0.03125 0.234375 -0.046875l0.140625 0.671875q-0.125 0.078125 -0.296875 0.140625q-0.171875 0.046875 -0.375 0.078125q-0.203125 0.046875 -0.4375 0.0625q-0.21875 0.03125 -0.4375 0.03125q-0.375 0 -0.703125 -0.109375q-0.328125 -0.109375 -0.5625 -0.34375q-0.234375 -0.234375 -0.375 -0.59375q-0.140625 -0.375 -0.140625 -0.890625l0 -3.0625l-1.484375 0l0 -0.734375l1.484375 0l0 -1.375l0.96875 0zm7.6292114 3.984375q0 0.734375 -0.125 1.390625q-0.109375 0.65625 -0.3125 1.21875q-0.203125 0.5625 -0.46875 1.015625q-0.25 0.46875 -0.53125 0.828125q-0.28125 0.359375 -0.578125 0.609375q-0.28125 0.25 -0.53125 0.40625l-0.203125 -0.59375q0.3125 -0.234375 0.625 -0.671875q0.328125 -0.421875 0.578125 -1.03125q0.25 -0.609375 0.40625 -1.40625q0.171875 -0.796875 0.171875 -1.765625l0 -0.0625q0 -0.984375 -0.171875 -1.765625q-0.171875 -0.796875 -0.4375 -1.40625q-0.25 -0.625 -0.5625 -1.046875q-0.3125 -0.421875 -0.609375 -0.671875l0.203125 -0.578125q0.25 0.140625 0.53125 0.40625q0.296875 0.25 0.578125 0.609375q0.28125 0.359375 0.53125 0.828125q0.265625 0.453125 0.46875 1.015625q0.203125 0.5625 0.3125 1.21875q0.125 0.65625 0.125 1.390625l0 0.0625zm10.539551 3.671875l-0.859375 0l3.15625 -8.234375l0.859375 0l-3.15625 8.234375zm16.164612 -0.65625l-4.953125 0l0 -0.6875l2.46875 -2.765625q0.34375 -0.359375 0.5625 -0.640625q0.21875 -0.296875 0.359375 -0.53125q0.140625 -0.25 0.1875 -0.46875q0.0625 -0.21875 0.0625 -0.4375q0 -0.28125 -0.09375 -0.53125q-0.09375 -0.25 -0.265625 -0.421875q-0.171875 -0.1875 -0.421875 -0.296875q-0.25 -0.109375 -0.5625 -0.109375q-0.375 0 -0.65625 0.109375q-0.265625 0.109375 -0.453125 0.3125q-0.1875 0.203125 -0.28125 0.484375q-0.09375 0.28125 -0.09375 0.640625l-0.96875 0q0 -0.484375 0.171875 -0.90625q0.171875 -0.421875 0.484375 -0.734375q0.3125 -0.328125 0.765625 -0.515625q0.453125 -0.1875 1.03125 -0.1875q0.546875 0 0.96875 0.171875q0.4375 0.15625 0.734375 0.4375q0.296875 0.28125 0.453125 0.671875q0.15625 0.375 0.15625 0.828125q0 0.34375 -0.125 0.671875q-0.109375 0.328125 -0.3125 0.65625q-0.1875 0.3125 -0.453125 0.640625q-0.25 0.3125 -0.53125 0.625l-2.03125 2.203125l3.796875 0l0 0.78125z" fill-rule="nonzero"/></g></svg>